<?xml version="1.0" encoding="UTF-8"?><svg id="Layer_2" xmlns="http://www.w3.org/2000/svg" viewBox="0 0 169.53 218.31"><defs><style>.cls-1{fill:#f4a531;}.cls-2{fill:#f4a42f;}.cls-3{fill:#eadbc7;}.cls-4{fill:#e88e2d;}.cls-5{fill:#e8d8c1;}.cls-6{fill:#e8dac8;}.cls-7{fill:#e58f28;}.cls-8{fill:#ea875c;}.cls-9{fill:#ea7754;}.cls-10{fill:#fff;}.cls-11{fill:#fff6e9;}.cls-12{fill:#f4e9d6;}.cls-13{fill:#ffa77b;}.cls-14{fill:#efe6d8;}.cls-15{fill:#7f4528;}.cls-16{fill:#93452f;}.cls-17{fill:#aa432b;}.cls-18{fill:#d8752b;}.cls-19{fill:#af9e87;}.cls-20{fill:#ce5a20;}.cls-21{fill:#cc4f46;}.cls-22{fill:#d27558;}.cls-23{fill:#c4b29b;}.cls-24{fill:#c64e20;}.cls-25{fill:#dd704a;}.cls-26{fill:#e2d4bc;}.cls-27{fill:#d6c4aa;}.cls-28{fill:#443239;}.cls-29{fill:#9b5d3b;}.cls-30{fill:#557e8e;}.cls-31{fill:#49241b;}.cls-32{fill:#632f21;}.cls-33{fill:#473939;}.cls-34{fill:#7a3e2a;}.cls-35{fill:#779caf;}.cls-36{fill:#842f1e;}</style></defs><g id="Layer_2-2"><g><path class="cls-14" d="M2.43,88.9c4.47-12.81,19.37-25.93,20.71-26.52s5.36-1.19,5.36-1.19l-7.15,16.84s-7.15,9.98-8.2,12.52c-1.04,2.53-10.73-1.64-10.73-1.64Z"/><path class="cls-5" d="M23.57,66.13c-8.12,13.33-14.81,18.62-17.83,16.21-.04-.04-.08-.08-.13-.12-1.29,2.19-2.4,4.44-3.18,6.68,0,0,9.69,4.17,10.73,1.64,1.04-2.53,8.2-12.52,8.2-12.52l3.69-8.69c-.2,.26-1.31-3.48-1.48-3.2Z"/><path class="cls-27" d="M7.49,88.9l8.94,4.47,7.05-22.55s-5.56,9.93-15.99,18.08Z"/><path class="cls-8" d="M36.72,214.01s-1.6-8.51-1.19-11.04l-2.74-.51c.81,2.92,.36,10.51,.36,10.51l3.57,1.04Z"/><path class="cls-8" d="M44.12,213.39s-1.76-7.66-1.51-10.55l-2.44,1.41c.84,2.44,.76,10.59,.76,10.59l3.19-1.45Z"/><path class="cls-25" d="M44.65,43.9l-8.84,4.27s-1.79,7.75-3.77,11.32l11.03-1.99c-1.09-5.46,1.59-13.61,1.59-13.61Z"/><path class="cls-14" d="M30.14,29.2c-3.18-.79-3.08-2.98-3.08-2.98,0,0-7.45-5.26-4.07-14.01s13.91-7.25,13.91-7.25c0,0,4.97-3.58,10.13-3.08,5.17,.5,10.13,4.87,12.12,9.04,0,0,7.35,.2,10.43,5.56,3.08,5.36,.4,12.91-3.48,13.51,0,0-.1,4.17-5.76,5.26-5.66,1.09-5.86-2.48-5.86-2.48l-4.87,8.24-19.47-11.82Z"/><path class="cls-26" d="M64.26,12.08c-2.66-1.09-5.11-1.16-5.11-1.16-.47-.99-1.12-2-1.89-2.96,.52,2.93-.29,10.66-8.54,9.62l5.71,6.01c-2.4-7.5,5.01-10.42,9.83-11.51Z"/><path class="cls-26" d="M65.1,32.56c.96-1.31,1-2.57,1-2.57,1.56-.24,2.92-1.6,3.79-3.49-2.15,1.43-6.64,1.24-14.94-2.64,0,0-1.79,10.21,1.27,7.08,2.42-2.48,8.09-2.1,8.88,1.63Z"/><path class="cls-26" d="M60.14,26.81c-7.95-2.09-6.16-8.84-6.16-8.84,0,0-.5-.2-5.26-.4-4.77-.2-6.95-5.36-6.95-5.36,0,0-.99-1.39-3.38,2.09-2.38,3.48-5.98-.35-5.98-.35,0,7.76-2.64,11.73-5.82,11.89,.29,.25,.47,.38,.47,.38,0,0-.1,2.19,3.08,2.98l19.47,11.82,4.87-8.24s.05,.91,.83,1.67c-.24-3.22,4.83-7.63,4.83-7.63Z"/><path class="cls-26" d="M45.04,16.56c-3.33-6.11-6.5-9.59-6.72-12.47-.89,.49-1.42,.88-1.42,.88,0,0-.75-.1-1.91-.09-.59,4.53-4.81,8.31-1.04,12.36,4.77,5.14,11.1-.67,11.1-.67Z"/><path class="cls-14" d="M49.81,30.64c1.79-5.96-1.96-10.55-6.43-11.25-4.47-.7-8.48,1.24-8.96,4.32s2.75,6.15,7.22,6.84c4.47,.7,7.27,3.07,8.17,.08Z"/><path class="cls-27" d="M33.37,22.99c2.63-3.92,4.62-5.41,4.62-5.41,0,0-2.43,.65-3.33-.5,.11,1.65-.3,3.6-1.29,5.91Z"/><path class="cls-3" d="M11.87,123.27c1.34,22.99,19.07,83.09,19.07,83.09,0,0,4.97,.61,7.55,0,2.58-.61-6.16-81.88-6.16-81.88l-20.46-1.21Z"/><path class="cls-27" d="M32.33,124.48l-20.46-1.21c.23,4.01,.96,9.14,2.01,14.89l4.88-.31s10.87,46.38,14.91,68.74c1.58,.08,3.5,.08,4.82-.22,2.58-.61-6.16-81.88-6.16-81.88Z"/><path class="cls-3" d="M19.81,125.45l1.59,13.51,15.89,68.14s3.58,1.59,7.15,0c0,0,2.58-71.52,2.38-76.89-.2-5.36-27.02-4.77-27.02-4.77Z"/><path class="cls-27" d="M46.83,130.22c-.2-5.36-27.02-4.77-27.02-4.77l-1.22,6.92,2.21,5.38c5.3,.14,20.5,2.46,21.47,3.59,1.05,1.23,1.33,53.93,1.38,66.06,.27-.09,.54-.18,.8-.3,0,0,2.58-71.52,2.38-76.89Z"/><path class="cls-14" d="M9.28,128.33c13.81,8.54,40.09,7.83,40.73,7.55,.89-.4-6.06-42.02-6.06-42.02,0,0,8.15-30,7.95-31.09-.2-1.09-7.65-2.98-8.74-6.16,0,0-9.44-.4-10.03-.5s-1.59,3.38-1.59,3.38c0,0-3.77,1.89-5.17,2.48-1.39,.6-8.13,14.4-8.15,14.7-.1,1.59,1.78,6.02,1.49,6.66-9.73,21.56-10.43,45-10.43,45Z"/><path class="cls-5" d="M43.16,56.61s-9.44-.4-10.03-.5c-.6-.1-1.59,3.38-1.59,3.38,0,0-.68,.34-1.56,.77,3.14,1.87,8.34,3.1,14.23,3.1,2.74,0,5.33-.27,7.63-.74-.75-1.11-7.63-2.97-8.68-6.02Z"/><path class="cls-5" d="M51.9,62.77c-.06-.34-.82-.75-1.87-1.26-3.67,6.75-10.97,15.13-10.97,15.13,0,0-10.38,3.31-20.84,.15-.01,1.67,.78,6.12,.5,6.74-9.73,21.56-9.44,44.8-9.44,44.8,.88,.54,1.81,1.05,2.78,1.52,.92-18.89,7.73-33.8,15.7-33.8s14.79,16.32,14.4,36.46c-.02,1.16-.07,2.3-.13,3.44,4.61,.18,7.76,.04,7.98-.06,.89-.4-6.06-42.02-6.06-42.02,0,0,8.15-30,7.95-31.09Z"/><path class="cls-27" d="M27.86,84.68l-.84,.2s-10.28,23.69-8.17,47.71l.82,.22c-2.24-24.04,8.2-48.13,8.2-48.13Z"/><path class="cls-19" d="M35.13,61.49c.24-.56,.12-1.15-.27-1.32s-.9,.15-1.15,.71c-.24,.56-.12,1.15,.27,1.32,.39,.17,.9-.15,1.15-.71Z"/><path class="cls-19" d="M32.98,67.34c.24-.56,.12-1.15-.27-1.32-.39-.17-.9,.15-1.15,.71-.24,.56-.12,1.15,.27,1.32,.39,.17,.9-.15,1.15-.71Z"/><path class="cls-19" d="M24.23,105.97c.15-.59-.06-1.16-.48-1.26-.41-.1-.87,.29-1.02,.88-.15,.59,.06,1.16,.48,1.26,.41,.1,.87-.29,1.02-.88Z"/><path class="cls-19" d="M23.45,116.26c.12-.6-.13-1.15-.54-1.23-.42-.08-.85,.34-.97,.94-.12,.6,.13,1.15,.54,1.23,.42,.08,.85-.34,.97-.94Z"/><path class="cls-19" d="M26.39,97.46c.22-.57,.08-1.16-.31-1.31-.4-.16-.9,.18-1.12,.75-.22,.57-.08,1.16,.31,1.31,.4,.16,.9-.18,1.12-.75Z"/><path class="cls-19" d="M30.55,73.35c.24-.56,.12-1.15-.27-1.32-.39-.17-.9,.15-1.15,.71-.24,.56-.12,1.15,.27,1.32,.39,.17,.9-.15,1.15-.71Z"/><path class="cls-27" d="M33.35,56.12s-5.36,15.05-8.27,22.95l.58,.34,8.26-23.25-.57-.04Z"/><path class="cls-5" d="M51.6,62.38c4.07,3.18,8.54,11.72,5.26,22.05-3.28,10.33-9.93,13.81-12.12,13.01s-1.29-9.83-.1-11.72c1.19-1.89,3.58-8.15,3.28-10.33s3.68-13.01,3.68-13.01Z"/><path class="cls-27" d="M50.38,91.41c-2.36-1.57-1.55-6.52,1.82-11.06,1.73-2.33,3.79-4.1,5.71-5.05-.55-6.05-3.52-10.74-6.31-12.92,0,0-3.97,10.83-3.68,13.01s-3.4,5.51-4.59,7.4c-1.19,1.89-.77,13.86,1.42,14.65,1.56,.57,5.38-1.04,8.63-5.73-1.17,.29-2.21,.22-3-.3Z"/><path class="cls-11" d="M12.16,87.21c-2.78-1.89-9.64-.99-11.13,1.19-1.49,2.19-1.39,9.64,.4,10.83s6.06,1.49,6.85,.89,5.26-5.56,5.36-7.05c.1-1.49-1.49-5.86-1.49-5.86Z"/><path class="cls-13" d="M48.54,64.73c-.74-1.44-2.31-1.47-3.55-1.32s-3.23,1.34-3.33,5.12l2.58-.65s5.04-1.71,4.3-3.15Z"/><path class="cls-8" d="M48.09,64.08c-.61-.46-2.11-.49-2.61,.68-.18,.42-.55,1.55,.44,3.16l.59-.79s2.19-2.59,1.58-3.05Z"/><path class="cls-7" d="M8.98,89.94c7.15-8.49,51.7-35.31,60.5-30.89,6.11,3.07-17.94,19.91-30.6,25.58-12.67,5.66-25.87,12.32-27.81,11.72s-2.09-6.41-2.09-6.41Z"/><path class="cls-2" d="M19.11,81.68c.15,.33,.42,.6,.84,.81,7.05,3.55,34.37-12.78,48.6-23.76-8.08-1.84-34.28,12.4-49.43,22.95Z"/><path class="cls-18" d="M49.56,64.12l-5.56,2.62s-2.61,8.87,.15,14.53l4.77-3.13c-3.65-7.15,.65-14.01,.65-14.01Z"/><path class="cls-20" d="M52.69,70.92c2.41-.97-.84-3.74-2.94-6.92-1.11,.52-2.23,1.06-3.36,1.62,1.88,3.29,4.62,5.98,6.3,5.3Z"/><g><path class="cls-20" d="M23.89,84.95c1.28-.88,.13-2.95-.91-5.89-.85,.56-1.67,1.11-2.47,1.65,.86,2.93,1.56,5.48,3.38,4.24Z"/><path class="cls-20" d="M32.82,79.74c1.27-.88-.36-2.85-1.89-5.67-.82,.49-1.63,.98-2.42,1.47,1.38,2.83,2.49,5.45,4.32,4.19Z"/><path class="cls-20" d="M40.21,76.28c1.39-1.14-.58-3.2-2.2-6.29-.88,.49-1.76,.98-2.64,1.48v.03c1.63,3.1,2.77,6.48,4.84,4.78Z"/><path class="cls-20" d="M58.58,64.11c.18-1.01-.76-1.93-2.19-2.94-.74,.28-1.5,.59-2.28,.91,2.53,1.72,4.27,3.15,4.47,2.03Z"/></g><path class="cls-18" d="M55.08,72.9c-10.46,7.34-33.08,16.99-40.42,12.01-2.59,1.99-4.58,3.72-5.67,5.03,0,0,.15,5.81,2.09,6.41s15.14-6.06,27.81-11.72c11.26-5.03,31.5-18.89,31.58-24.07-3.66,4.1-10.84,9.17-15.38,12.35Z"/><path class="cls-11" d="M45.14,83.43c1.59-1.09,6.66,2.68,7.25,5.17,.6,2.48-1.09,8.15-2.28,9.54s-4.27,1.69-4.27,1.69c0,0-5.46,1.29-5.07-4.17,.4-5.46,4.37-12.22,4.37-12.22Z"/><path class="cls-13" d="M42.26,98.04c-5.78-9.19-3.7-29.19,2.19-33.97,1.59-1.29,1.49,7.95,1.59,12.62,.1,4.67,1.65,9.54,2.35,11.43,.7,1.89-4.43,12.61-6.12,9.93Z"/><path class="cls-8" d="M48.38,88.11c-.7-1.89-2.25-6.76-2.35-11.43-.07-3.07,.02-9.36-.45-11.85-.62-.68-.39,5.18-.55,8.37-.46,9.22-2.51,16.8-5.23,18.69,.56,2.31,1.37,4.42,2.45,6.14,1.69,2.68,6.82-8.04,6.12-9.93Z"/><path class="cls-13" d="M5.22,98.55c9.98,3.07,25.81-8.86,26.51-9.55,.7-.7,.79-1.89-.2-2.19-.99-.3-18.67,2.09-25.43,.89-5.29-.93-2.17,10.45-.88,10.84Z"/><path class="cls-8" d="M17.4,93c-6.26,.15-11.64-1.27-14.06-3.44-.82,3.05,.98,8.71,1.88,8.99,9.98,3.07,25.81-8.86,26.51-9.55,.29-.29,.47-.67,.51-1.03-1.82,2.74-7.78,4.86-14.84,5.03Z"/><path class="cls-17" d="M43.16,50.23c.4-5.76-2.39-8.52-2.39-8.52l-10.83-2.58s-3.18-6.56,.99-13.41c4.17-6.85,11.32-5.26,15.3-1.99,3.97,3.28,4.87,11.92,4.47,15.2-.4,3.28-7.54,11.3-7.54,11.3Z"/><path class="cls-36" d="M46.24,23.73c-.91-.75-2-1.42-3.17-1.91,1.94,1.45,3.17,3.55,3.17,5.91,0,4.36-4.2,7.9-9.39,7.9-3.38,0-6.34-1.51-7.99-3.77-.42,4.17,1.09,7.27,1.09,7.27l10.83,2.58s2.79,2.76,2.39,8.52c0,0,7.14-8.02,7.54-11.3,.4-3.28-.5-11.92-4.47-15.2Z"/><path class="cls-13" d="M38.13,50.99c-1.6,.93-3.66,.66-4.92-.69-4.9-5.24-4.43-14.45-3.56-17.33,.99-3.28,4.86-9.19,9.34-8.49,4.47,.7,2.49,8.02,8.59,13.39-.84,7.1-6.19,11.24-9.45,13.13Z"/><path class="cls-13" d="M46.53,38.96c.3-4.27,2.78-5.66,3.28-4.57,.5,1.09,.4,4.37-.79,5.46s-2.48,1.89-2.68,1.49c-.2-.4,.2-2.38,.2-2.38Z"/><path class="cls-14" d="M51.54,218.31h-11.41s-.22-4.92,1.79-5.81c2.93-1.3,3.79,3.08,5.89,3.21,2.98,.19,3.99,1.69,3.73,2.6Z"/><path class="cls-14" d="M23.44,218.31h13.76s.39-5.34-1.94-6.03c-3.18-.94-2.63,3.38-7.65,3.38-3.34,0-4.46,1.73-4.17,2.66Z"/><path class="cls-13" d="M28.91,90.46c3.69-1.3,6.44-2.42,6.97-3.2,.52-.78,1.49-1.64,1.27-1.97-.22-.34-1.64,.04-2.42-.26-.78-.3-1.42-1.23-2.31-.71s-3.8,2.68-3.8,2.68l.3,3.46Z"/><path class="cls-13" d="M34.54,85.51c-.15-.82,.19-2.38,.74-2.94s.97-2.09,.37-2.27c-.83-.26-1.77,1.79-2.46,2.64-.29,.36-2.35,2.44-2.35,2.44l3.69,.13Z"/><path class="cls-13" d="M48.57,63.83c-.56,.22-1.19,.83-1.57,.83s-1.41-.05-1.65,.16c-.99,.87-.79,3.06,.41,2.55,1.04-.44,1.63-1.49,1.86-1.75,.23-.26,1.72-1.23,1.82-1.51,.1-.3-.31-.5-.87-.28Z"/><path class="cls-27" d="M56.74,27.43s-2.05-1.25-2.97-2.71c1.01,2.43,1.4,4.83,.88,7.21,.74-2.38,2.09-4.51,2.09-4.51Z"/><path class="cls-27" d="M39.23,17.08c4.57-.4,10.23,1.64,14.11,6.95,0,0-1.69-3.13-1.24-4.17-2.24-.3-8.99-2.48-10.53-4.77-.37,.91-1.2,1.54-2.33,1.99Z"/><path class="cls-14" d="M37.25,15.39c-4.54,.83-4.02-7.7-.99-8.1,3.03-.4,6.95,7,.99,8.1Z"/><path class="cls-21" d="M49.02,36.01c-.25-.56-1.5,.14-1.68,2.27,.27-.14,.49-.1,.53,.09,.05,.24-.02,.72-.18,1.15,.26-.14,.6-.4,.92-.69,.61-.56,.67-2.25,.41-2.82Z"/><g><path class="cls-22" d="M35.99,38.13s.09,.16,.2,.41c-.82,.56-1.83,1.7,.38,2.51-.02,.03-.03,.07-.05,.1-3.79-1-1.2-2.74-.53-3.02Z"/><path class="cls-28" d="M32.92,42.87c.01,.28,.03,.56,.06,.83,.34,2.69,1.86,4.15,3.21,3.96,1.28-.17,2.17-1.72,2.52-4.28l-5.79-.51Z"/><path class="cls-12" d="M33.69,45c-.13-.26-.23-.59-.27-1.04-.02-.21-.02-.42-.03-.62l4.96,.31c-.14,.97-.37,1.43-.71,1.68l-3.95-.33Z"/><path class="cls-33" d="M40.65,36.88c.8,.14,1.43,.8,1.75,1.69-.02-1.38-.6-2.49-1.47-2.62-.73-.11-1.46,.48-1.92,1.44,.48-.41,1.05-.62,1.65-.51Z"/><path class="cls-33" d="M31.93,36.04c.79-.11,1.53,.34,2.03,1.12-.31-1.36-1.11-2.27-1.97-2.12-.72,.12-1.28,.94-1.52,2.03,.36-.56,.87-.94,1.45-1.02Z"/><path class="cls-17" d="M44.72,36.8c-2.57-4.7-6.59-4.74-6.59-4.74l.52-2.65c3.52,.94,5.45,3.5,6.07,7.39Z"/><path class="cls-17" d="M28.7,34.17c3.01-3.73,6.34-2.5,6.34-2.5l.07-2.72c-3.09-.2-5.16,1.67-6.41,5.23Z"/></g></g><g><path class="cls-32" d="M142.11,39.34c-.09,1.87,1.14,3.39,2.75,3.39s2.98-1.52,3.07-3.39c.09-1.87-1.14-3.39-2.75-3.39s-2.98,1.52-3.07,3.39Z"/><path class="cls-14" d="M154.15,22.72s2.06-8.36-3.24-12.37c-5.3-4-13.18-3.71-13.18-3.71,0,0-3.31-6.18-9.58-6.62-6.26-.44-8.69,4.58-8.69,4.58-3.54-.44-15.03,1.75-15.91,10.84-.88,9.09,5.67,10.04,5.67,10.04,.15,4.07,5.67,3.13,5.67,3.13,0,0,1.55,4.15,.44,10.84l29.24-4.29c-.37-1.75,.37-4.58,.37-4.58,4.05,1.38,9.58-2.11,10.24-4.29,.66-2.18-1.03-3.56-1.03-3.56Z"/><path class="cls-6" d="M154.15,22.72s.2-.8,.31-2.02c-.51,.56-1.09,1.06-1.76,1.45-4.41,2.61-10.6,.31-13.83-5.14-2.07-3.5-2.41-7.43-1.23-10.5-.05-.09-.15-.24-.26-.42-1,4.17-4.48,7.25-8.62,7.25-4.83,0-8.75-4.17-8.91-9.38-.26,.39-.4,.66-.4,.66-.26-.03-.56-.05-.89-.05,.99,1.98,1.57,4.28,1.57,6.74,0,7.39-5.15,13.38-11.49,13.38-.59,0-1.16-.05-1.73-.15,1.23,.79,2.31,.95,2.31,.95,.15,4.07,5.67,3.13,5.67,3.13,0,0,1.55,4.15,.44,10.84l1.58-.23c-.24-1.16-.37-2.38-.37-3.62,0-8.6,6.23-15.18,13.67-15.18s13.15,6.46,13.28,14.9l1.08-.16c-.37-1.75,.37-4.58,.37-4.58,4.05,1.38,9.58-2.11,10.24-4.29,.66-2.18-1.03-3.56-1.03-3.56Z"/><path class="cls-6" d="M141.52,35.21c-1.21-3.44-.48-10.57-.48-10.57l-1.36-1.55s1.65,5.77,.15,11.83l1.7,.29Z"/><path class="cls-6" d="M118,36.27c1.53-4.14,.61-10.85,.61-10.85l1.71-2.34s-2.08,6.72-.18,11.92l-2.14,1.27Z"/><path class="cls-27" d="M141.65,23.93s2.28,3.38,2.37,11.31l.56-.08c-.37-1.75,.37-4.58,.37-4.58,.16,.05,.32,.09,.48,.13-1.13-3.17,3.45-2.68,5.69-5.35-5.72,3.76-9.47-1.42-9.47-1.42Z"/><path class="cls-8" d="M124.87,197.56c1.05,4.93,1.1,15.39,1.1,15.39l-3.21-.44s-1.39-6.81-3.41-10.88l5.52-4.07Z"/><path class="cls-8" d="M136.06,196.97c-.55,5.61,.55,16.66,.55,16.66l3.29-1.72s.7-7.73,2.35-12.81l-6.19-2.12Z"/><path class="cls-14" d="M151.8,218.31h-17.24s-.46-1.7-.19-2.36c.26-.66,1.5-4.52,1.5-4.52l4.49-1.49s1.69,3.38,7.06,3.86c1.85,.17,4.58-.11,4.38,4.51Z"/><path class="cls-14" d="M111.59,218.31h16.15s-.31-2.81-.48-3.49-.52-3.56-.52-3.56l-4.74-1.3s-2.41,2.46-4.36,3.62c-3.08,1.83-5.73,0-6.04,4.73Z"/><path class="cls-26" d="M102.94,138.25c-.21,13.19,12.96,67.69,13.67,68.86s11.85-.19,12.6-.58c.75-.39,4.32-59.35,4.32-59.35l-30.59-8.92Z"/><path class="cls-27" d="M129.27,193.84c-3.79-20.2-13.1-31.3-20.14-30.19-.85,.13-1.63,.45-2.34,.92-2.23-11.21-3.93-21.52-3.85-26.33l30.59,8.92s-2.15,35.43-3.46,51.54c-.22-1.6-.49-3.22-.79-4.87Z"/><path class="cls-26" d="M157.09,145.81c-3.04,15.9-9.22,60.71-10.83,61.87-1.61,1.16-12.81-1.37-13.22-2.52-.49-1.37-10.95-63.43-10.95-63.43l35,4.07Z"/><path class="cls-27" d="M142.49,165.91c-5.45-.72-10.68,3.7-14.4,11.17-2.9-16.97-6-35.35-6-35.35l35,4.07c-1.22,6.4-2.96,17.49-4.7,28.53-2.56-4.8-5.98-7.91-9.9-8.43Z"/><polygon class="cls-23" points="115.67 144.89 126.62 172.19 123.75 147.09 115.67 144.89"/><path class="cls-14" d="M98.05,153.57c22.72,14.26,62.78-2.81,63.39-3.69,.62-.87-.68-82.43-3.76-85.63-3.08-3.2-20.1-14.26-24.76-14.26s-29.46,12.28-31.76,16c-6.83,11.06-3.13,87.57-3.13,87.57Z"/><path class="cls-5" d="M132.93,50c-3.13,0-15.36,5.55-23.74,10.32,2.58,5.81,13.1,8.41,24.58,5.82,6.67-1.5,12.28-4.45,15.8-7.9-6.12-3.99-13.76-8.24-16.64-8.24Z"/><path class="cls-5" d="M157.69,64.25c-.37-.38-.94-.88-1.65-1.45-.37,3.26-1.29,6.62-2.79,9.98-6.92,15.48-23.64,24.86-37.35,20.95-11.55-3.29-9.06-20.65-13.61-27.73-.02,.03-1.09-.03-1.11,0-6.83,11.06-3.13,87.57-3.13,87.57,.38,.24,.76,.47,1.15,.69-.14-.89-.21-1.8-.21-2.72,0-13.02,10.29-23.9,27.33-24.7,17.03-.8,34.35,8.78,34.35,21.79,0,.59-.04,1.17-.09,1.75,.52-.25,.82-.42,.87-.49,.62-.87-.68-82.43-3.76-85.63Z"/><path class="cls-27" d="M160.99,109.26l-20.78,10.27,1.75,6.3c9.21-2.23,16.39,.29,19.51,4.46-.1-6.33-.26-13.64-.48-21.03Z"/><path class="cls-27" d="M97.05,111.91c0,9.25,.2,18.33,.41,25.64,2.89-14.24,16.66-12.59,16.66-12.59l-1.41-12.41-15.66-.64Z"/><path class="cls-35" d="M137.37,65.2c.05-.16,.02-.32-.08-.45-.56-.77-4.14-.84-9.54-.86-1.4,0-2.93,0-3.9-.06-.48-.02-.82-.48-.71-.95,.45-1.92,1.69-6.32,2.79-8.77l-.52-.24c-1.42,3.16-3.34,9.26-2.83,10.09,.2,.32,.68,.49,5.18,.51,2.99,0,8.52,.03,9.07,.6-1.03,3.92-2.21,69.24,2.37,92.1,.19-.04,.37-.08,.56-.12-4.59-22.88-3.4-88.36-2.38-91.85Z"/><path class="cls-9" d="M103.84,122.37c4.48,2.39,8.08,3.11,10.31,3.3,1.5,.12,6.86,.41,7.72-.82l1.16-3.56-17.09-10.76-2.11,11.86Z"/><path class="cls-14" d="M102.68,64.54c-10.86,6.21-19.4,30.26-19.59,35.11-.19,4.85-2.52,13.21,24.25,25.05l.22-16.66-5.07-12.85c2.33-12.41,.98-26.54,.19-30.65Z"/><path class="cls-5" d="M102.94,96.36c-2.87,7.76-7.28,12.77-11.44,12.15-3.96-.58-6.67-6.1-7.35-13.75-.65,2.19-1.03,3.93-1.06,4.89-.19,4.85-2.52,13.21,24.25,25.05l.22-16.66-4.61-11.68Z"/><path class="cls-15" d="M119.84,87.38c-4.22-.15-13.97,1.31-17.55,5.48l.68,4.56,26.48,10.04,12.51-13.09,6.89-7.9s-24.78,1.07-29,.92Z"/><path class="cls-4" d="M131.35,66.42c-8.5-1.87-20.14,22.57-23.63,31.88l8.34,2.33c17.46-24.25,21.94-32.74,15.29-34.2Z"/><path class="cls-1" d="M131.35,66.42c-8.5-1.87-20.14,22.57-23.63,31.88l1.91,.53c4.42-2.51,10.87-9.08,16.91-17.63,3.11-4.41,5.69-8.74,7.59-12.59-.34-1.16-1.27-1.86-2.78-2.19Z"/><g><path class="cls-18" d="M116.26,91.53c1.97-2.37-.83-3.51-3.47-4.65-.75,1.49-1.45,2.95-2.09,4.35,3.15,1,4.05,2.12,5.56,.31Z"/><path class="cls-18" d="M121.36,84.43c2.62-2.39-1.93-4.68-3.93-5.91-.81,1.3-1.59,2.65-2.35,4.01,2.66,.84,4.39,3.61,6.28,1.9Z"/><path class="cls-18" d="M126.75,74.36c1.31-2.48-1.62-2.99-3.5-3.75-1.09,1.17-2.18,2.54-3.24,4.02,3.32,.57,5.36,2.35,6.74-.27Z"/></g><path class="cls-18" d="M113.17,101.75c6.53-14.95,10.21-21.69,14.24-23.53,4.03-1.84,6.4,3.15,4.59,6.3-1.26,2.2-8.8,17.56-8.8,17.56l-10.02-.33Z"/><path class="cls-4" d="M127.41,78.22c-3.17,1.45-6.13,5.94-10.43,15.09,2.13,1.36,6.98-1.93,10.92-7.43,1.69-2.37,2.94-4.76,3.66-6.84-.91-1.1-2.37-1.62-4.15-.81Z"/><g><path class="cls-24" d="M119.63,87.93c-.46,.87-.94,1.81-1.43,2.81,3.86,.92,5.09,1.79,5.64,1.73,.54-.06-1.91-3.15-4.21-4.54Z"/><path class="cls-24" d="M122.1,83.65c-.51,.79-1.03,1.67-1.58,2.64,4.24,.93,5.95,1.98,6.65,1.9,.64-.07-2.43-3.03-5.07-4.55Z"/><path class="cls-24" d="M126.31,78.85c-.72,.5-1.44,1.17-2.18,2.03,3.46,.95,4.59,1.76,5.12,1.71,.44-.04-1.1-2.18-2.94-3.74Z"/></g><path class="cls-4" d="M123.82,102.17c5.04-23.28,20.17-39.96,26.18-38.21,6.01,1.75-9.5,26.77-9.5,26.77l-16.68,11.44Z"/><path class="cls-1" d="M151.19,65.13c-.21-.59-.59-1-1.19-1.17-4.5-1.31-14.11,7.71-20.77,22.1-1.16,2.64-.39,5.47,.36,5.98,2.77,1.88,10.55-3.6,16-13.75,2.58-4.81,4.88-9.72,5.6-13.16Z"/><g><path class="cls-18" d="M147.74,73.32c1.6-1.53,1.29-4.42-4.22-5-.45-.05-.9,.11-1.24,.45-.08,.08-.16,.17-.24,.25-.75,.78-.59,2.08,.3,2.56,2.11,1.14,4.18,2.9,5.39,1.74Z"/><path class="cls-18" d="M143.67,82.36c1.67-1.5,.8-4.84-6.22-6.15-.6-.11-1.22,.17-1.57,.72l-.02,.03c-.53,.81-.27,1.89,.53,2.31,2.84,1.48,5.93,4.31,7.28,3.09Z"/><path class="cls-18" d="M137.93,91.49c2.09-1.91,1.6-5.41-5.39-6.38-.67-.09-1.37,.23-1.75,.82-.29,.45-.58,.91-.86,1.37-.49,.8-.26,1.77,.53,2.16,2.98,1.47,5.89,3.47,7.47,2.03Z"/></g><polygon class="cls-30" points="108.01 107.7 107.91 125.16 104.71 123.7 105.68 106.54 108.01 107.7"/><path class="cls-29" d="M130.02,124.48c-19.35,3.6-30.45-13.58-27.93-25.22,0,0-3.3-5.24,.19-6.4,3.49-1.16,4.46,5.62,17.46,3.1,13-2.52,26.19-10.67,29.09-9.5,2.91,1.16,.97,5.04-.58,5.43,0,0,12.03,26.96-18.23,32.59Z"/><path class="cls-15" d="M150.15,89.67c-2.34,1.46-5.18,2.84-8.32,4-1.36,.5-2.7,.93-4.01,1.29,.04,.5,.06,1.01,.06,1.52,0,10.57-7.82,20.33-17.46,21.82-9.64,1.49-17.46-5.87-17.46-16.44,0-1.26,.12-2.51,.33-3.74-.86-.45-1.66-.95-2.38-1.49,.4,1.4,1.17,2.63,1.17,2.63-2.52,11.64,8.58,28.81,27.93,25.22,30.26-5.62,18.23-32.59,18.23-32.59,.73-.18,1.54-1.14,1.9-2.22Z"/><path class="cls-9" d="M109.37,122.08c2.69,1.02,5.11-1.33,5.75-1.67,.95-.51,3.54-.68,4.44-1.02,.78-.29,.58-2.69-1.09-2.91-1.69-.22-3.27,.8-5.75,.58-.73-.06-2.05,.1-3.17,.28-1.06,.17-1.67,1.29-1.24,2.27l1.07,2.47Z"/><path class="cls-8" d="M142.83,122.15c-5.82,2.76-9.6,3.2-9.6,3.2l.58-13.07,4.08-1.91,4.95,11.78Z"/><path class="cls-14" d="M157.69,64.25c13.36,10.28,12.29,36.95,11.32,41.02-.97,4.07-13.77,16.68-27.93,21.14l-5.62-16.1s11.25-12.03,16.49-16.87c.73-15.31,1.89-26.26,5.75-29.19Z"/><path class="cls-5" d="M161,67.45c5.18,12.67,2.92,29.78,1.89,32.92-1.16,3.54-12.22,13.02-24.84,17.36l3.04,8.69c14.16-4.46,26.96-17.07,27.93-21.14,.88-3.7,1.84-26.06-8.01-37.82Z"/><path class="cls-29" d="M103.06,78.9c-5.04,6.98,3.88,13.97,3.88,13.97l2.33-1.75s-7.72-10.43-1.55-12.22c10.67-3.1,29.68,12.61,29.68,12.61l1.55-1.16c-18.43-16.68-30.84-18.43-35.88-11.44Z"/><path class="cls-34" d="M143.21,33.51c1.55,.48,2.73,2.22,2.62,3.3-.14,1.32-.97,3.69-.97,3.69,0,0,3.03,2.3,2.33,5.65,1.07,1.24,2.33,5.82-.19,8.32-.88,.87-3.39,.87-3.39,.87,0,0,.27,2.84-3.32,4.19-3.59,1.36-6.69,.29-6.69,.29,0,0-1.92,1.38-4.73,1.67-2.81,.29-4.68-1.28-4.68-1.28,0,0-5.12,1.14-7.15-.8s-2.23-3.78-2.23-3.78c0,0-3.1-1.36-3.2-4.66-.1-3.3,2.13-6.59,2.13-6.59,0,0-2.62-4.85,3.3-9.31,.39-6.3,12.51-6.98,16.87-4.46,2.76-.49,7.39,.06,9.31,2.91Z"/><path class="cls-32" d="M147.19,46.14c.46-2.2-.68-3.94-1.53-4.88-.07,1.44-.25,2.77-.54,4,2.43,3.06,1.34,7.21-2.4,8.18-.7,4.41-5.71,5.21-9.26,4.9-2.08,.82-5.18,.66-8.32-.3-3.77,1.05-7.84-.63-9.08-4.12-3.42-1.6-3.78-5.02-2.9-8.58-.65,1.22-1.63,3.42-1.56,5.62,.1,3.3,3.2,4.66,3.2,4.66,0,0,.19,1.84,2.23,3.78s7.15,.8,7.15,.8c0,0,1.87,1.58,4.68,1.28,2.81-.29,4.73-1.67,4.73-1.67,0,0,3.1,1.07,6.69-.29,3.59-1.36,3.32-4.19,3.32-4.19,0,0,2.51,0,3.39-.87,2.52-2.5,1.26-7.08,.19-8.32Z"/><path class="cls-35" d="M137,108.68c-.96,1.02-1.54,1.64-1.54,1.64l5.62,16.1c.88-.28,1.75-.59,2.62-.92l-6.7-16.82Z"/><path class="cls-8" d="M117.61,123.9c6.3,4.56,18.52,.78,18.52,.78,2.62-.45,.49-12.96-2.13-12.51,0,0-3.59,2.13-4.36,2.42-.78,.29-1.31,6.1-2.96,7.49-1.84,1.55-8.29-.9-9.07-.41-.78,.48,0,2.23,0,2.23Z"/><path class="cls-13" d="M134,112.16s-3.59,2.13-4.36,2.42c-.67,.25-1.17,4.68-2.37,6.74,.53,.11,1.09,.17,1.66,.17,3.94,0,7.13-2.62,7.13-5.86,0-1.06-.35-2.05-.94-2.9-.35-.42-.73-.64-1.12-.57Z"/><path class="cls-13" d="M131.46,119.1s-4.62-1.24-7.22-2.12c-1.84-.63-4.47-1.04-5.24-1.43-1.25-.65-.26-3.74,1-3.52,3.71,.67,9.93,.23,13.37,.18,2.98-.05,.16,6.61-1.9,6.9Z"/><path class="cls-15" d="M107.72,78.9c.31-.09,.64-.16,.97-.22-2.52,.2-3.01-2.21-.75-3.2-2.03,.59-3.66,1.75-4.87,3.42-5.04,6.98,4.02,14.4,4.02,14.4l2.72-2.33s-8.25-10.28-2.09-12.07Z"/><path class="cls-15" d="M116.06,100.62c18.43-2.81,23.37-7.08,27.74-7.47l-.97,4.75c-6.98,1.16-26.77,2.72-26.77,2.72Z"/><path class="cls-15" d="M101.9,97.42l1.07,1.65-.29,3.98s9.87-2.53,19.49-2.91l3.24-1.29c-13.13,1.19-15.65,1.48-23.51-1.43Z"/><ellipse class="cls-15" cx="139.99" cy="92.26" rx=".58" ry=".91"/><path class="cls-32" d="M116.06,46.72s-1.24-2.6-2.71-6.59c-.59,2.42,.39,4.23,.39,4.23,0,0-.41,.61-.87,1.55,1.58-.07,3.19,.8,3.19,.8Z"/><path class="cls-32" d="M146.11,41.81c-.62-.84-1.25-1.32-1.25-1.32,0,0,.83-2.36,.97-3.69,.04-.35-.08-.77-.28-1.2-.99,3.94-3.74,8.13-3.74,8.13l4.3-1.93Z"/><path class="cls-13" d="M119.45,35.49c3.45-4.37,6.4-2.27,6.4-2.27,0,0,2.81-2.12,4.86-1.37,2.04,.75,.76,2.43-.36,2.02,1.81,1.33,4.26-.6,4.32-1.31,.06-.72,3.98-.14,5.31,1.64,1.33,1.78,2.73,7.3-.54,7.91-3.27,.61-7.98-2.6-8.48-2.41-.5,.19-6.33,4.05-9.88,1.04-2.23-1.89-2.15-4.61-1.64-5.26Z"/><path class="cls-27" d="M118.74,23.18c4.75-4.46,10.41-5.09,10.41-5.09,0,0-5.92-1.55-6.3-3.59-.32,3.26-1.84,6.11-4.1,8.68Z"/><path class="cls-27" d="M127.94,18.19c4.56-.1,8.34,1.26,10.28,2.81,0,0-3.25-3.3-2.91-6.98-1.25,1.83-3.37,3.34-7.37,4.17Z"/><path class="cls-27" d="M113.35,28.7c.87,.02,1.54-.09,1.54-.09,0,0,.36,.98,.61,2.73,1.19-3.48,2.16-6.52,2.16-6.52,0,0-1.43,2.62-4.31,3.87Z"/><path class="cls-5" d="M150.9,92.04l-.87,2.91c4.66-.29,6.98,1.82,6.98,1.82,0,0-3.2-4.29-6.11-4.73Z"/><path class="cls-5" d="M151.6,89.78l-.92,3.13c4.9-1.45,7.35,.07,7.35,.07,0,0-3.37-3.49-6.43-3.2Z"/><path class="cls-31" d="M125.44,43.63c.27-.18,9.55-.37,9.84-.23,.29,.15,1.27,3.35,1.2,3.69-.07,.33-2.79,2.47-5.45,2.54-2.66,.07-6.13-1.59-6.39-2.02-.26-.43,.47-3.77,.8-3.98Z"/><path class="cls-8" d="M129.77,36.79c-.69,.97-1.65,3.03-1.16,3.88s3.97,.89,4.77-.1c.35-.43-.97-3.48-1.43-3.93-.46-.45-1.83-.35-2.18,.15Z"/><path class="cls-10" d="M125.09,46.26c1.48,.16,3.1,.26,4.79,.26,2.17,0,4.22-.15,6-.41-.25-.9-.78-2.36-.98-2.45-.27-.13-8.84,.04-9.1,.19-.21,.12-.58,1.45-.73,2.41Z"/><path class="cls-31" d="M126.77,38.34c-1.3-2.34-3.5-.94-4.06,.41,.94-.95,2.72-1.6,4.06-.41Z"/><path class="cls-31" d="M134.88,38.2c1.4-2.25,3.41-.7,3.84,.69-.83-1.02-2.48-1.79-3.84-.69Z"/><path class="cls-16" d="M122.79,36.1c-1.92,.12-2.98-1.96-1.49-2.98,1.49-1.02,5.64-2.62,6.44-1.6s.18,3.06-.22,3.35c-.4,.29-4.15,1.2-4.73,1.24Z"/><path class="cls-16" d="M139.2,36.44c1.89,.22,3.05-1.81,1.63-2.9-1.42-1.09-5.43-2.91-6.28-1.93-.84,.98-.34,3.04,.04,3.35,.38,.31,4.03,1.41,4.61,1.48Z"/><path class="cls-32" d="M128.01,50.51c3.19,1.14,6.28-.3,6.28-.3-1.96,1.96-4.02,2.48-6.28,.3Z"/><path class="cls-8" d="M118.11,39.17c.12-1.42-1.85-3.01-2.62-2.06-.77,.95,.26,3.09,1.24,3.46,.98,.36,1.29-.29,1.38-1.39Z"/><path class="cls-8" d="M144.03,41.53c-.61-.76,.88-3.49,1.66-3.27,.79,.23,1.18,2.12,.78,2.73-.4,.6-1.97,1.13-2.44,.54Z"/></g></g></svg>