<?xml version="1.0" encoding="UTF-8"?><svg id="Layer_2" xmlns="http://www.w3.org/2000/svg" viewBox="0 0 239.16 107.12"><defs><style>.cls-1{fill:#f9b39a;}.cls-2{fill:#f15723;}.cls-3{fill:#f5b400;}.cls-4{fill:#f7971e;}.cls-5{fill:#ea4d20;}.cls-6{fill:#e49306;}.cls-7{fill:#e8721b;}.cls-8{fill:#fff;}.cls-9{fill:#e67e22;}.cls-10{fill:#fbd099;}.cls-11{fill:#663f30;}.cls-12{fill:#95d8e9;}.cls-13{fill:#999;}.cls-14{fill:#666;}.cls-15{fill:#b2b2b2;}.cls-16{fill:#ccc;}.cls-17{fill:#e2421e;}.cls-18{fill:#ab948c;}.cls-19{fill:#1ac;}.cls-20{fill:#89695e;}.cls-21{fill:#582a1a;}.cls-22{fill:#795547;}.cls-23{fill:#4dbfd9;}</style></defs><g id="icons"><g><g><path class="cls-17" d="M35.88,22.32l-1.46-1.11c-.21-.16-5.15-3.96-5.95-9.59-.64-4.51,.17-8.62,2.07-10.47,.63-.61,1.39-1,2.19-1.11,3.79-.54,6.55,4.59,7.31,9.94,.8,5.63-2.89,10.66-3.05,10.87l-1.1,1.47Zm-2.8-18.56c-.75,.73-1.55,3.49-1.01,7.35,.34,2.41,1.85,4.47,3.03,5.76,.78-1.56,1.65-3.96,1.31-6.38-.65-4.56-2.62-6.87-3.19-6.84h0s-.05,.02-.15,.11Z"/><path class="cls-17" d="M15.11,25.71H56.16c2.69,0,4.87,2.18,4.87,4.87v43.9c0,2.69-2.18,4.87-4.87,4.87H15.11c-2.69,0-4.87-2.18-4.87-4.87V30.57c0-2.69,2.18-4.87,4.87-4.87Z" transform="translate(-26.56 39.84) rotate(-44.32)"/><g><path class="cls-5" d="M63.82,56.75l-24.61,24.04c-1.92,1.88-5.27,1.59-7.46-.66L7.47,55.27c-.52-.53-.93-1.12-1.22-1.73-.96-2.01-.74-4.31,.73-5.74L31.6,23.76c1.92-1.88,5.26-1.58,7.45,.67l24.27,24.86c.35,.36,.64,.74,.9,1.15,.39,.64,.64,1.32,.79,2.01,.32,1.6-.06,3.2-1.2,4.31Z"/><g><polygon class="cls-2" points="56.22 42.01 16.57 38.43 25.98 29.24 45.47 31 56.22 42.01"/><path class="cls-2" d="M63.82,56.75l-3.44,3.36L7.56,55.36l-.09-.09c-.52-.53-.93-1.12-1.22-1.73-.96-2.01-.74-4.31,.73-5.74l2.37-2.31,54.87,4.95c.39,.64,.64,1.32,.79,2.01,.32,1.6-.06,3.2-1.2,4.31Z"/><polygon class="cls-9" points="53.15 67.18 43.74 76.36 26.54 74.8 15.8 63.8 53.15 67.18"/></g></g></g><g><path class="cls-7" d="M48.68,49.75l.25,.69,2.02,5.5,.62,1.68,1.43,3.9,2.23,6.07,.62,1.68,3.65,9.96,.51,1.37,.11,.31,.49,1.35v.03c.75,1.78,.39,3.93-1.08,5.36l-18.5,18.07c-.75,.72-1.69,1.14-2.65,1.28-1.07,.16-2.18-.04-3.13-.59-.3-.16-.58-.36-.83-.6-.08-.06-.16-.13-.23-.21L1.38,71.98c-1.88-1.92-1.84-5.01,.08-6.88l18.46-18.03c.28-.27,.58-.5,.91-.7,.6-.36,1.27-.58,1.95-.65,1.26-.14,2.57,.21,3.61,1.06h0c.15,.12,.28,.24,.41,.37l14.81,15.17-2.78-7.01-.58-1.44s-.04-.11-.06-.16c-.09-.24-.15-.49-.19-.75-.24-1.19,0-2.4,.61-3.4h0c.16-.27,.34-.52,.55-.75,.32-.35,.7-.67,1.13-.91,.21-.14,.44-.25,.69-.34l1.36-.54c1.26-.49,2.61-.44,3.76,.07,.3,.13,.59,.3,.85,.49,.74,.52,1.34,1.26,1.7,2.17Z"/><g><polygon class="cls-4" points="15.64 51.26 10.22 81.17 1.4 72.14 2.94 63.67 15.64 51.26"/><path class="cls-4" d="M26.74,47.23l5.21,5.34-7.77,42.9-8.82-9.03,7.36-40.64c1.26-.14,2.57,.21,3.61,1.06h0c.15,.12,.28,.24,.41,.37Z"/><path class="cls-4" d="M48.61,49.82l.25,.69-9.96,54.99c-.1,.57-.3,1.1-.58,1.57-1.07,.16-2.18-.04-3.13-.59-.3-.16-.58-.36-.83-.6-.08-.06-.16-.13-.23-.21l-4.82-4.94,7.77-42.91,4.48,4.58-2.78-7.01-.58-1.44s-.04-.11-.06-.16c-.09-.24-.15-.49-.19-.75l.61-3.4h0c.16-.27,.34-.52,.55-.75,.32-.35,.7-.67,1.13-.91,.21-.14,.44-.25,.69-.34l1.36-.54c1.26-.49,2.61-.44,3.76,.07,.3,.13,.59,.3,.85,.49,.74,.52,1.34,1.26,1.7,2.17Z"/><polygon class="cls-4" points="52.93 61.59 55.16 67.65 55.78 69.33 59.44 79.29 59.94 80.66 58.49 88.68 45.78 101.09 52.93 61.59"/></g></g></g><g><g><path class="cls-23" d="M84.68,40.57c1.12-1.85,.37-4.34-1.66-5.58-1.22-.74-2.62-.85-3.79-.43l-1.94-1.18c-.17-1.23-.91-2.42-2.13-3.16s-2.62-.85-3.79-.43l-1.54-.93c-.17-1.23-.91-2.42-2.13-3.16-2.04-1.24-4.6-.74-5.71,1.1-.04,.06-.05,.12-.08,.18-.04,.05-.08,.09-.11,.15l-4.32,12.03c-.77,1.27-.18,3.04,1.32,3.95l12.93,7.84c1.5,.91,3.34,.61,4.11-.66l8.66-9.39c.03-.05,.05-.11,.08-.17,.04-.06,.09-.1,.12-.16Z"/><path class="cls-19" d="M68.49,44.65c-.51,.84-1.6,1.11-2.44,.6h0c-.84-.51-1.11-1.6-.6-2.44l6.43-10.61c.51-.84,1.6-1.1,2.44-.6h0c.84,.51,1.1,1.6,.6,2.43l-6.43,10.61Z"/><path class="cls-19" d="M73.66,48.01c-.62,.75-1.74,.86-2.49,.23h0c-.75-.62-.86-1.74-.23-2.5l7.92-9.55c.63-.75,1.74-.86,2.5-.23h0c.75,.63,.86,1.74,.23,2.5l-7.92,9.55Z"/><path class="cls-19" d="M60.09,39.78c-.38,.9,.05,1.94,.95,2.32h0c.9,.38,1.94-.05,2.32-.95l4.81-11.44c.38-.9-.05-1.95-.95-2.32h0c-.9-.38-1.94,.05-2.32,.95l-4.81,11.44Z"/></g><g><path class="cls-22" d="M102.06,3.5h49.74c4.47,0,8.1,3.63,8.1,8.1V87.7c0,4.47-3.63,8.1-8.1,8.1h-49.74c-4.47,0-8.1-3.63-8.1-8.1V11.6c0-4.47,3.63-8.1,8.1-8.1Z" transform="translate(18.67 132.45) rotate(-58.77)"/><path class="cls-11" d="M101.79,39.98l-.13,.51,.47-.27c.82-.44,1.83-.27,2.44,.44,.61,.7,.64,1.73,.06,2.48l-.31,.42,.52-.05c.93-.09,1.79,.5,2.07,1.38,.26,.89-.14,1.85-.96,2.29l-.47,.27,.51,.16c.89,.29,1.43,1.17,1.32,2.1-.12,.93-.87,1.63-1.8,1.7l-.53,.04,.39,.36c.69,.64,.82,1.66,.34,2.46s-1.44,1.14-2.33,.83l-.5-.18,.21,.49c.37,.86,.1,1.85-.67,2.38-.77,.53-1.8,.45-2.47-.2l-.39-.36-.02,.52c-.01,.93-.68,1.72-1.58,1.91-.92,.17-1.83-.34-2.19-1.19l-.2-.48-.23,.47c-.05,.11-.12,.23-.18,.33-.46,.62-1.25,.93-2.04,.76-.9-.22-1.52-1.05-1.51-1.97l.02-.54-.39,.35c-.7,.61-1.74,.65-2.48,.1-.73-.57-.98-1.57-.57-2.42l.23-.47-.51,.16c-.89,.27-1.85-.13-2.3-.93-.44-.82-.25-1.84,.46-2.44l.39-.33-.51-.07c-.93-.11-1.66-.86-1.73-1.78-.09-.93,.51-1.79,1.4-2.04l.51-.16-.46-.26c-.8-.49-1.16-1.45-.84-2.34,.31-.87,1.19-1.42,2.11-1.29l.52,.07-.31-.43c-.53-.77-.45-1.8,.18-2.48,.64-.69,1.66-.82,2.45-.32l.45,.27-.09-.52c-.18-.91,.29-1.82,1.16-2.18,.85-.36,1.85-.06,2.38,.71l.28,.44,.13-.51c.21-.91,1.03-1.56,1.94-1.53,.89,.01,1.68,.63,1.87,1.52,.03,.02,.03,.06,.03,.08l.09,.52,.31-.42c.1-.14,.23-.28,.39-.37,.55-.44,1.33-.55,2.01-.23l.04,.03c.82,.4,1.23,1.32,1.02,2.21Z"/><path class="cls-11" d="M117.31,14.38l-.13,.51,.47-.27c.82-.44,1.83-.27,2.44,.44,.61,.7,.64,1.73,.06,2.48l-.31,.42,.52-.05c.93-.09,1.79,.5,2.07,1.38,.26,.89-.14,1.85-.96,2.29l-.46,.27,.51,.16c.88,.29,1.43,1.17,1.31,2.1-.12,.93-.87,1.63-1.8,1.69l-.53,.04,.39,.36c.69,.64,.82,1.66,.33,2.46s-1.44,1.14-2.33,.83l-.5-.18,.21,.5c.38,.86,.1,1.85-.67,2.38-.77,.53-1.8,.45-2.47-.2l-.39-.36-.02,.52c-.01,.93-.68,1.72-1.58,1.91-.92,.17-1.83-.34-2.19-1.19l-.2-.48-.23,.47c-.05,.11-.12,.23-.18,.33-.46,.62-1.25,.93-2.04,.76-.9-.22-1.52-1.05-1.51-1.97l.02-.54-.39,.35c-.7,.61-1.74,.65-2.48,.1-.73-.57-.98-1.57-.57-2.42l.23-.47-.51,.16c-.89,.27-1.85-.13-2.3-.93-.44-.82-.25-1.84,.46-2.44l.39-.33-.51-.07c-.93-.11-1.66-.86-1.73-1.78-.09-.93,.51-1.79,1.4-2.04l.51-.16-.46-.26c-.8-.49-1.16-1.45-.84-2.34,.31-.87,1.19-1.42,2.1-1.29l.52,.07-.31-.43c-.53-.77-.45-1.8,.18-2.48,.64-.69,1.66-.83,2.45-.32l.45,.27-.09-.52c-.18-.9,.29-1.82,1.16-2.18,.85-.36,1.85-.06,2.38,.71l.28,.44,.13-.51c.21-.91,1.03-1.56,1.94-1.53,.89,.01,1.67,.63,1.87,1.52,.03,.02,.02,.06,.03,.08l.09,.52,.31-.42c.1-.14,.23-.29,.39-.38,.55-.44,1.33-.55,2.01-.22l.04,.03c.82,.39,1.24,1.32,1.02,2.21Z"/><path class="cls-11" d="M125.1,54.11l-.13,.51,.47-.27c.82-.44,1.83-.27,2.44,.44,.61,.7,.64,1.73,.06,2.48l-.31,.42,.52-.05c.93-.09,1.79,.5,2.07,1.38,.26,.89-.14,1.85-.96,2.29l-.47,.27,.51,.16c.89,.29,1.43,1.17,1.32,2.1-.12,.93-.87,1.63-1.8,1.7l-.53,.04,.39,.36c.69,.64,.82,1.66,.34,2.46s-1.44,1.14-2.33,.83l-.5-.18,.21,.49c.37,.86,.1,1.85-.67,2.38-.77,.53-1.8,.45-2.47-.2l-.39-.36-.02,.52c-.01,.93-.68,1.72-1.58,1.91-.92,.17-1.83-.34-2.19-1.19l-.2-.48-.23,.47c-.05,.11-.12,.23-.18,.33-.46,.62-1.25,.93-2.04,.76-.9-.22-1.52-1.05-1.51-1.97l.02-.54-.39,.35c-.7,.61-1.74,.65-2.48,.1-.73-.57-.98-1.57-.57-2.42l.23-.47-.51,.16c-.89,.27-1.85-.13-2.3-.93-.44-.82-.25-1.84,.46-2.44l.39-.33-.51-.07c-.93-.11-1.66-.86-1.73-1.78-.09-.93,.51-1.79,1.4-2.04l.51-.16-.46-.26c-.8-.49-1.16-1.45-.84-2.34,.31-.87,1.19-1.42,2.11-1.29l.52,.07-.31-.43c-.53-.77-.45-1.8,.18-2.48,.64-.69,1.66-.82,2.45-.32l.45,.27-.09-.52c-.18-.91,.29-1.82,1.16-2.18,.85-.36,1.85-.06,2.38,.71l.28,.44,.13-.51c.21-.91,1.03-1.56,1.94-1.53,.89,.01,1.68,.63,1.87,1.52,.03,.02,.03,.06,.03,.08l.09,.52,.31-.42c.1-.14,.23-.28,.39-.37,.55-.44,1.33-.55,2.01-.23l.04,.03c.82,.4,1.23,1.32,1.02,2.21Z"/><path class="cls-11" d="M140.62,28.52l-.13,.51,.47-.27c.82-.44,1.83-.27,2.44,.44,.61,.7,.64,1.73,.06,2.48l-.31,.42,.52-.05c.93-.09,1.79,.5,2.07,1.38,.26,.89-.14,1.85-.96,2.29l-.46,.27,.51,.16c.88,.29,1.43,1.17,1.31,2.1-.12,.93-.87,1.63-1.8,1.69l-.53,.04,.39,.36c.69,.64,.82,1.66,.33,2.46s-1.44,1.14-2.33,.83l-.5-.18,.21,.5c.38,.86,.1,1.85-.67,2.38-.77,.53-1.8,.45-2.47-.2l-.39-.36-.02,.52c-.01,.93-.68,1.72-1.58,1.91-.92,.17-1.83-.34-2.19-1.19l-.2-.48-.23,.47c-.05,.11-.12,.23-.18,.33-.46,.62-1.25,.93-2.04,.76-.9-.22-1.52-1.05-1.51-1.97l.02-.54-.39,.35c-.7,.61-1.74,.65-2.48,.1-.73-.57-.98-1.57-.57-2.42l.23-.47-.51,.16c-.89,.27-1.85-.13-2.3-.93-.44-.82-.25-1.84,.46-2.44l.39-.33-.51-.07c-.93-.11-1.66-.86-1.73-1.78-.09-.93,.51-1.79,1.4-2.04l.51-.16-.46-.26c-.8-.49-1.16-1.45-.84-2.34,.31-.87,1.19-1.42,2.1-1.29l.52,.07-.31-.43c-.53-.77-.45-1.8,.18-2.48,.64-.69,1.66-.83,2.45-.32l.45,.27-.09-.52c-.18-.9,.29-1.82,1.16-2.18,.85-.36,1.85-.06,2.38,.71l.28,.44,.13-.51c.21-.91,1.03-1.56,1.94-1.53,.89,.01,1.67,.63,1.87,1.52,.03,.02,.02,.06,.03,.08l.09,.52,.31-.42c.1-.14,.23-.29,.39-.38,.55-.44,1.33-.55,2.01-.22l.04,.03c.82,.39,1.24,1.32,1.02,2.21Z"/><path class="cls-11" d="M148.1,68.77l-.13,.51,.47-.27c.82-.44,1.83-.27,2.44,.44,.61,.7,.64,1.73,.06,2.48l-.31,.42,.52-.05c.93-.09,1.79,.5,2.07,1.38,.26,.89-.14,1.85-.96,2.29l-.47,.27,.51,.17c.89,.29,1.43,1.17,1.32,2.1-.12,.93-.87,1.63-1.8,1.7l-.53,.04,.39,.36c.69,.64,.82,1.66,.34,2.46s-1.44,1.14-2.33,.83l-.5-.18,.21,.49c.37,.86,.1,1.85-.67,2.38-.77,.53-1.8,.45-2.47-.2l-.39-.36-.02,.52c-.01,.93-.68,1.72-1.58,1.91-.92,.17-1.83-.34-2.19-1.19l-.2-.48-.23,.47c-.05,.11-.12,.23-.18,.33-.46,.62-1.25,.93-2.04,.76-.9-.22-1.52-1.05-1.51-1.97l.02-.54-.39,.35c-.7,.61-1.74,.65-2.48,.1-.73-.57-.98-1.57-.57-2.42l.23-.47-.51,.16c-.89,.27-1.85-.13-2.3-.93-.44-.82-.25-1.84,.46-2.44l.39-.33-.51-.07c-.93-.11-1.66-.86-1.73-1.78-.09-.93,.51-1.79,1.4-2.04l.51-.16-.46-.26c-.8-.49-1.16-1.45-.84-2.34,.31-.87,1.19-1.42,2.11-1.29l.52,.07-.31-.43c-.53-.77-.45-1.8,.18-2.48,.64-.69,1.66-.82,2.45-.32l.45,.27-.09-.52c-.18-.91,.29-1.82,1.16-2.18,.85-.36,1.85-.06,2.38,.71l.28,.43,.13-.51c.21-.91,1.03-1.56,1.94-1.53,.89,.01,1.68,.63,1.87,1.52,.03,.02,.03,.06,.03,.08l.09,.52,.31-.42c.1-.14,.23-.28,.39-.37,.55-.44,1.33-.55,2.01-.23l.04,.03c.82,.4,1.23,1.32,1.02,2.21Z"/><path class="cls-11" d="M163.94,42.65l-.13,.51,.47-.27c.82-.44,1.83-.27,2.44,.44,.61,.7,.64,1.73,.06,2.48l-.31,.42,.52-.05c.93-.09,1.79,.5,2.07,1.38,.26,.89-.14,1.85-.96,2.29l-.46,.27,.51,.16c.88,.29,1.43,1.17,1.31,2.1-.12,.93-.87,1.63-1.8,1.69l-.53,.04,.39,.36c.69,.64,.82,1.66,.33,2.46s-1.44,1.14-2.33,.83l-.5-.18,.21,.5c.38,.86,.1,1.85-.67,2.38-.77,.53-1.8,.45-2.47-.2l-.39-.36-.02,.52c-.01,.93-.68,1.72-1.58,1.91-.92,.17-1.83-.34-2.19-1.19l-.2-.48-.23,.47c-.05,.11-.12,.23-.18,.33-.46,.62-1.25,.93-2.04,.76-.9-.22-1.52-1.05-1.51-1.97l.02-.54-.39,.35c-.7,.61-1.74,.65-2.48,.1-.73-.57-.98-1.57-.57-2.42l.23-.47-.51,.16c-.89,.27-1.85-.13-2.3-.93-.44-.82-.25-1.84,.46-2.44l.39-.33-.51-.07c-.93-.11-1.66-.86-1.73-1.78-.09-.93,.51-1.79,1.4-2.04l.51-.16-.46-.26c-.8-.49-1.16-1.45-.84-2.34,.31-.87,1.19-1.42,2.1-1.29l.52,.07-.31-.43c-.53-.77-.45-1.8,.18-2.48,.64-.69,1.66-.83,2.45-.32l.45,.27-.09-.52c-.18-.9,.29-1.82,1.16-2.18,.85-.36,1.85-.06,2.38,.71l.28,.44,.13-.51c.21-.91,1.03-1.56,1.94-1.53,.89,.01,1.67,.63,1.87,1.52,.03,.02,.02,.06,.03,.08l.09,.52,.31-.42c.1-.14,.23-.29,.39-.38,.55-.44,1.33-.55,2.01-.22l.04,.03c.82,.39,1.24,1.32,1.02,2.21Z"/><path class="cls-21" d="M135.48,73.04c2.24-3.7,7.05-4.88,10.75-2.63s4.88,7.06,2.64,10.75-7.06,4.88-10.75,2.64-4.88-7.06-2.64-10.75Z"/><path class="cls-21" d="M112.3,58.68c2.24-3.7,7.06-4.88,10.75-2.63s4.88,7.06,2.64,10.75c-2.24,3.7-7.06,4.88-10.75,2.64s-4.88-7.06-2.64-10.75Z"/><path class="cls-21" d="M88.85,44.77c2.24-3.7,7.06-4.88,10.75-2.63s4.88,7.06,2.64,10.75c-2.24,3.7-7.06,4.88-10.75,2.64s-4.88-7.06-2.64-10.75Z"/><path class="cls-21" d="M151.31,46.92c2.24-3.7,7.05-4.88,10.75-2.63,3.7,2.24,4.88,7.05,2.64,10.75s-7.06,4.88-10.75,2.64c-3.7-2.24-4.88-7.06-2.64-10.75Z"/><path class="cls-21" d="M128,32.79c2.24-3.7,7.06-4.88,10.75-2.63,3.7,2.24,4.88,7.05,2.64,10.75s-7.06,4.88-10.75,2.64c-3.7-2.24-4.88-7.06-2.64-10.75Z"/><path class="cls-21" d="M104.68,18.65c2.24-3.7,7.06-4.88,10.75-2.63s4.88,7.05,2.64,10.75c-2.24,3.7-7.06,4.88-10.75,2.64-3.7-2.24-4.88-7.06-2.64-10.75Z"/></g><g><path class="cls-3" d="M94,50.8c1.12-1.85,.38-4.34-1.66-5.58-1.22-.74-2.62-.85-3.79-.43l-1.94-1.18c-.17-1.23-.91-2.42-2.13-3.16s-2.62-.85-3.79-.43l-1.54-.93c-.17-1.23-.91-2.42-2.13-3.16-2.04-1.24-4.6-.74-5.71,1.11-.03,.06-.05,.12-.08,.18-.04,.05-.08,.09-.11,.15l-4.32,12.03c-.77,1.27-.18,3.04,1.32,3.95l12.93,7.84c1.5,.91,3.34,.61,4.11-.66l8.66-9.39c.03-.05,.05-.11,.08-.17,.04-.06,.09-.1,.12-.16Z"/><path class="cls-6" d="M77.81,54.87c-.51,.84-1.6,1.1-2.43,.6h0c-.84-.51-1.11-1.6-.6-2.44l6.44-10.61c.51-.84,1.6-1.1,2.44-.6h0c.84,.51,1.1,1.6,.6,2.43l-6.44,10.61Z"/><path class="cls-6" d="M82.98,58.23c-.62,.75-1.74,.86-2.49,.23h0c-.76-.62-.86-1.74-.23-2.5l7.92-9.55c.63-.75,1.74-.86,2.5-.23h0c.75,.62,.86,1.74,.23,2.5l-7.92,9.55Z"/><path class="cls-6" d="M69.41,50c-.38,.9,.05,1.94,.95,2.32h0c.9,.38,1.94-.04,2.32-.95l4.81-11.44c.38-.9-.05-1.94-.95-2.32h0c-.9-.38-1.94,.05-2.32,.95l-4.81,11.44Z"/></g></g><g><g><path class="cls-10" d="M74.04,84.4c0,8.24-4.71,14.92-10.53,14.92s-10.53-6.68-10.53-14.92,4.71-14.92,10.53-14.92,10.53,6.68,10.53,14.92Z"/><path class="cls-10" d="M74.04,84.4c0,8.24-4.71,14.92-10.53,14.92s-10.53-6.68-10.53-14.92,4.71-14.92,10.53-14.92,10.53,6.68,10.53,14.92Z"/></g><g><path class="cls-10" d="M99.56,84.4c0,8.24-4.71,14.92-10.53,14.92s-10.53-6.68-10.53-14.92,4.71-14.92,10.53-14.92,10.53,6.68,10.53,14.92Z"/><path class="cls-10" d="M99.56,84.4c0,8.24-4.71,14.92-10.53,14.92s-10.53-6.68-10.53-14.92,4.71-14.92,10.53-14.92,10.53,6.68,10.53,14.92Z"/></g><g><path class="cls-10" d="M125.09,84.4c0,8.24-4.71,14.92-10.53,14.92s-10.53-6.68-10.53-14.92,4.71-14.92,10.53-14.92,10.53,6.68,10.53,14.92Z"/><path class="cls-10" d="M125.09,84.4c0,8.24-4.71,14.92-10.53,14.92s-10.53-6.68-10.53-14.92,4.71-14.92,10.53-14.92,10.53,6.68,10.53,14.92Z"/></g><path class="cls-18" d="M72.35,86.71l.49,8.25-1.07,4.2c0,2.41-1.95,4.36-4.36,4.36h-7.8c-2.4,0-4.36-1.95-4.36-4.36l-1.07-4.2,.49-8.25h17.68Z"/><path class="cls-20" d="M72.84,94.96l-1.07,4.2c0,2.41-1.95,4.36-4.36,4.36h-4.11v-16.81h9.05l.49,8.25Z"/><path class="cls-18" d="M97.87,86.71l.49,8.25-1.07,4.2c0,2.41-1.95,4.36-4.36,4.36h-7.8c-2.41,0-4.36-1.95-4.36-4.36l-1.07-4.2,.49-8.25h17.68Z"/><path class="cls-18" d="M123.4,86.71l.49,8.25-1.07,4.2c0,2.41-1.95,4.36-4.36,4.36h-7.8c-2.41,0-4.36-1.95-4.36-4.36l-1.07-4.2,.49-8.25h17.68Z"/><path class="cls-20" d="M98.57,94.96l-1.07,4.2c0,2.41-1.95,4.36-4.36,4.36h-4.11v-16.81h9.05l.49,8.25Z"/><path class="cls-20" d="M124.1,94.96l-1.07,4.2c0,2.41-1.95,4.36-4.36,4.36h-4.11v-16.81h9.05l.49,8.25Z"/><path class="cls-18" d="M48.09,87.92c.74-.75,1.78-1.21,2.92-1.21H127.06c2.28,0,4.13,1.85,4.13,4.13s-1.85,4.12-4.13,4.12H51.01c-2.28,0-4.13-1.85-4.13-4.12"/><path class="cls-20" d="M48.01,89.71h82.05c.62,0,1.13,.51,1.13,1.13h0c0,.62-.51,1.13-1.13,1.13H48.01"/><path class="cls-8" d="M69.5,74.85c0,1.48-1.34,2.69-3,2.69s-3-1.2-3-2.69,1.34-2.69,3-2.69,3,1.2,3,2.69Z"/><path class="cls-8" d="M95.03,74.85c0,1.48-1.34,2.69-3,2.69s-3-1.2-3-2.69,1.34-2.69,3-2.69,3,1.2,3,2.69Z"/><path class="cls-8" d="M120.55,74.85c0,1.48-1.34,2.69-3,2.69s-3-1.2-3-2.69,1.34-2.69,3-2.69,3,1.2,3,2.69Z"/></g><g><rect class="cls-17" x="163.33" y="12.14" width="75.83" height="29.1" rx="8.39" ry="8.39"/><path class="cls-17" d="M239.16,99.42c0,2.2-1.79,3.99-3.99,3.99h-66.18c-2.2,0-3.99-1.79-3.99-3.99h0c0-2.2,1.79-3.99,3.99-3.99h66.18c2.2,0,3.99,1.79,3.99,3.99h0Z"/><path class="cls-17" d="M239.16,33.35v63.41c0,3.67-2.98,6.65-6.65,6.65h-16.4c-3.67,0-6.65-2.98-6.65-6.65v-1.33c3.67,0,6.65-2.98,6.65-6.65V47.9c0-3.67-2.98-6.65-6.65-6.65v-7.9c0-3.67,2.98-6.65,6.65-6.65h16.4c3.67,0,6.65,2.98,6.65,6.65Z"/><path class="cls-12" d="M215.58,62.88c0,17.98-14.57,32.55-32.55,32.55s-32.55-14.57-32.55-32.55h65.1Z"/><g><path class="cls-14" d="M181.57,82.5c0,.55-.45,1-1,1h0c-.55,0-1-.45-1-1V45.78c0-.55,.45-1,1-1h0c.55,0,1,.45,1,1v36.72Z"/><path class="cls-14" d="M180.57,84.76c-3.51,0-6.37-2.86-6.37-6.37v-7.48c0-3.51,2.86-6.37,6.37-6.37s6.37,2.86,6.37,6.37v7.48c0,3.51-2.86,6.37-6.37,6.37Zm0-18.01c-2.29,0-4.16,1.86-4.16,4.16v7.48c0,2.29,1.86,4.16,4.16,4.16s4.16-1.86,4.16-4.16v-7.48c0-2.29-1.86-4.16-4.16-4.16Z"/><path class="cls-13" d="M190.27,84.89c0,.55-.45,1-1,1h0c-.55,0-1-.45-1-1V48.17c0-.55,.45-1,1-1h0c.55,0,1,.45,1,1v36.72Z"/><path class="cls-16" d="M192.88,54.32c0,1.91-1.55,3.46-3.46,3.46h0c-1.91,0-3.46-1.55-3.46-3.46v-5.89c0-1.91,1.55-3.46,3.46-3.46h0c1.91,0,3.46,1.55,3.46,3.46v5.89Z"/><path class="cls-13" d="M189.27,87.16c-3.51,0-6.37-2.86-6.37-6.37v-7.48c0-3.51,2.86-6.37,6.37-6.37s6.37,2.86,6.37,6.37v7.48c0,3.51-2.86,6.37-6.37,6.37Zm0-18.01c-2.29,0-4.16,1.86-4.16,4.16v7.48c0,2.29,1.86,4.16,4.16,4.16s4.16-1.86,4.16-4.16v-7.48c0-2.29-1.86-4.16-4.16-4.16Z"/><path class="cls-15" d="M184.18,51.93c0,1.91-1.55,3.46-3.46,3.46h0c-1.91,0-3.46-1.55-3.46-3.46v-5.89c0-1.91,1.55-3.46,3.46-3.46h0c1.91,0,3.46,1.55,3.46,3.46v5.89Z"/><path class="cls-2" d="M194.87,45.12c0,2.13-1.73,3.86-3.86,3.86h-11.9c-2.13,0-3.86-1.73-3.86-3.86h0c0-2.13,1.73-3.86,3.86-3.86h11.9c2.13,0,3.86,1.73,3.86,3.86h0Z"/></g><path class="cls-8" d="M174.29,67.19c1.64,0,2.97,1.33,2.97,2.97h0c0,1.64-1.33,2.97-2.97,2.97h-13.03c-1.64,0-2.97-1.33-2.97-2.97h0c0-1.64,1.33-2.97,2.97-2.97h13.03Z"/><rect class="cls-2" x="163.33" y="23.59" width="75.83" height="6.65"/><path class="cls-1" d="M234.95,81.06c0,1.35-1.09,2.44-2.44,2.44h0c-1.35,0-2.44-1.09-2.44-2.44V38.44c0-1.35,1.09-2.44,2.44-2.44h0c1.35,0,2.44,1.09,2.44,2.44v42.61Z"/><path class="cls-1" d="M232.51,17.6c0,1.1-.89,2-2,2h-6.65c-1.1,0-2-.89-2-2h0c0-1.1,.89-2,2-2h6.65c1.1,0,2,.89,2,2h0Z"/></g></g></svg>