<?xml version="1.0" encoding="UTF-8"?><svg id="Layer_2" xmlns="http://www.w3.org/2000/svg" viewBox="0 0 86.54 53.68"><defs><style>.cls-1{fill:#f9b256;}.cls-2{fill:#f7971e;}.cls-3{fill:#ea4d20;}.cls-4{fill:#e57368;}.cls-5{fill:#e8721b;}.cls-6{fill:#f0851d;}.cls-7{fill:#d3362d;}.cls-8{fill:#582a1a;}</style></defs><g id="icons"><g><g><g><path class="cls-3" d="M55.22,38.95c0,2.1-2,3.8-4.47,3.8H29.43c-2.47,0-4.47-1.7-4.47-3.8l-3.58-17.66c0-2.1,2-3.8,4.47-3.8h28.47c2.47,0,4.47,1.7,4.47,3.8l-3.58,17.66Z"/><path class="cls-7" d="M42.26,37.5c0,1.38-1.12,2.5-2.5,2.5h0c-1.38,0-2.5-1.12-2.5-2.5V20c0-1.38,1.12-2.5,2.5-2.5h0c1.38,0,2.5,1.12,2.5,2.5v17.5Z"/><path class="cls-7" d="M50.95,37.77c-.2,1.37-1.47,2.31-2.84,2.11h0c-1.37-.2-2.31-1.47-2.11-2.84l2.57-17.31c.2-1.37,1.47-2.31,2.84-2.11h0c1.37,.2,2.31,1.47,2.11,2.84l-2.57,17.31Z"/><path class="cls-7" d="M28.57,37.77c.2,1.37,1.47,2.31,2.84,2.11h0c1.37-.2,2.31-1.47,2.11-2.84l-2.57-17.31c-.2-1.37-1.47-2.31-2.84-2.11h0c-1.37,.2-2.31,1.47-2.11,2.84l2.57,17.31Z"/></g><path class="cls-1" d="M62.5,13c0,4.05-3.28,7.33-7.33,7.33-.63,0-1.24-.09-1.82-.24-2.92,3.27-7.73,5.41-13.17,5.41s-10.29-2.16-13.21-5.44c-.62,.17-1.28,.27-1.96,.27-4.05,0-7.33-3.28-7.33-7.33,0-.61,.07-1.19,.22-1.75,.78-3.21,3.66-5.58,7.11-5.58,.56,0,1.09,.07,1.62,.18,2.87-3.51,7.86-5.85,13.55-5.85s10.64,2.32,13.52,5.82c.47-.1,.97-.15,1.47-.15,3.45,0,6.33,2.37,7.11,5.58,.15,.56,.22,1.14,.22,1.75Z"/><path class="cls-4" d="M35.54,17.59c0,1.77-1.43,3.2-3.2,3.2s-3.2-1.43-3.2-3.2,1.43-3.2,3.2-3.2,3.2,1.43,3.2,3.2Z"/><path class="cls-4" d="M41.95,8.82c0,1.77-1.43,3.2-3.2,3.2s-3.2-1.43-3.2-3.2,1.43-3.2,3.2-3.2,3.2,1.43,3.2,3.2Z"/><path class="cls-4" d="M56.16,15.95c0,1.77-1.43,3.2-3.2,3.2s-3.2-1.43-3.2-3.2,1.43-3.2,3.2-3.2,3.2,1.43,3.2,3.2Z"/><path class="cls-4" d="M52.96,5.62c0,1.77-1.43,3.2-3.2,3.2s-3.2-1.43-3.2-3.2,1.43-3.2,3.2-3.2,3.2,1.43,3.2,3.2Z"/><path class="cls-4" d="M30.24,5.62c0,1.77-1.43,3.2-3.2,3.2s-3.2-1.43-3.2-3.2,1.43-3.2,3.2-3.2,3.2,1.43,3.2,3.2Z"/></g><g><g><path class="cls-2" d="M31.84,42c-3.37-.92-8.07-1.5-13.26-1.5s-9.89,.58-13.26,1.5H0v3.5c0,2.76,8.32,5,18.58,5s18.58-2.24,18.58-5v-3.5h-5.32Z"/><path class="cls-1" d="M37.17,42c0,2.76-8.32,5-18.58,5S0,44.76,0,42s8.32-5,18.58-5,18.58,2.24,18.58,5Z"/></g><path class="cls-8" d="M11.29,42.44c0,.59-.48,1.06-1.06,1.06h-2.62c-.59,0-1.06-.48-1.06-1.06h0c0-.59,.48-1.06,1.06-1.06h2.62c.59,0,1.06,.48,1.06,1.06h0Z"/><path class="cls-8" d="M21.03,39.66c0,.69-.56,1.24-1.24,1.24h-3.9c-.69,0-1.24-.56-1.24-1.24h0c0-.69,.56-1.24,1.24-1.24h3.9c.69,0,1.24,.56,1.24,1.24h0Z"/><path class="cls-8" d="M27.8,43.5c0,.55-.45,1-1,1h-2c-.55,0-1-.45-1-1h0c0-.55,.45-1,1-1h2c.55,0,1,.45,1,1h0Z"/><path class="cls-8" d="M19.11,44.5c0,.55-.45,1-1,1h-1.38c-.55,0-1-.45-1-1h0c0-.55,.45-1,1-1h1.38c.55,0,1,.45,1,1h0Z"/><path class="cls-8" d="M30.92,40.38c0,.55-.45,1-1,1h-1.88c-.55,0-1-.45-1-1h0c0-.55,.45-1,1-1h1.88c.55,0,1,.45,1,1h0Z"/></g><g><g><path class="cls-5" d="M51.37,49.32c-1.86,.93-16.21,4.35-17.47,4.35-1.07,0-3.91-.78-1.66-5.52,.38-.82,.93-1.76,1.66-2.84,4.95-7.3,14.59-9.47,14.59-9.47,0,0,1.79,4.71,2.73,8.57,.59,2.44,.87,4.54,.15,4.9Z"/><path class="cls-6" d="M51.22,44.42c-2.37,1.03-16.09,4.29-17.32,4.29-.42,0-1.12-.12-1.66-.56,.38-.82,.93-1.76,1.66-2.84,4.95-7.3,14.59-9.47,14.59-9.47,0,0,1.79,4.71,2.73,8.57Z"/></g><g><path class="cls-5" d="M66.57,49.32c1.86,.93,16.21,4.35,17.47,4.35,1.07,0,3.91-.78,1.66-5.52-.38-.82-.93-1.76-1.66-2.84-4.95-7.3-14.59-9.47-14.59-9.47,0,0-1.79,4.71-2.73,8.57-.6,2.44-.87,4.54-.15,4.9Z"/><path class="cls-6" d="M66.72,44.42c2.37,1.03,16.09,4.29,17.32,4.29,.42,0,1.12-.12,1.66-.56-.38-.82-.93-1.76-1.66-2.84-4.95-7.3-14.59-9.47-14.59-9.47,0,0-1.79,4.71-2.73,8.57Z"/></g><path class="cls-6" d="M71.76,40.03v4.5c0,3.42-2.78,6.2-6.2,6.2h-12.87c-3.44,0-6.2-2.78-6.2-6.2v-4.5c0-.08,0-.15,.01-.22,.11-3.33,2.83-5.98,6.19-5.98h12.87c3.35,0,6.08,2.66,6.19,5.98,.01,.07,.01,.15,.01,.22Z"/><path class="cls-2" d="M71.74,39.8c-.02,.66-.15,1.28-.36,1.86-.84,2.39-3.14,4.11-5.83,4.11h-12.87c-2.7,0-4.99-1.71-5.84-4.11-.21-.58-.32-1.2-.35-1.86,.11-3.33,2.83-5.98,6.19-5.98h12.87c3.35,0,6.08,2.66,6.19,5.98Z"/></g></g></g></svg>